<?xml version="1.0" encoding="utf-8"?>
<!-- Uploaded to: SVG Repo, www.svgrepo.com, Generator: SVG Repo Mixer Tools -->
<svg class="w-4 h-4 fill-gray-400 group-hover:fill-blue-500 ease-in-out duration-300" width="800px" height="800px" viewBox="0 0 32 32" version="1.1" xmlns="http://www.w3.org/2000/svg">
<title>user-plus</title>
<path d="M13.5 16.324c3.757-0 6.802-3.046 6.802-6.802s-3.045-6.802-6.802-6.802-6.802 3.045-6.802 6.802c0 0 0 0 0 0.001v-0c0.005 3.755 3.048 6.798 6.802 6.802h0zM13.5 5.22c2.376 0 4.302 1.926 4.302 4.302s-1.926 4.302-4.302 4.302c-2.376 0-4.302-1.926-4.302-4.302v-0c0.003-2.375 1.928-4.3 4.302-4.303h0zM13.5 17.533c-6.195 0.026-11.372 4.351-12.705 10.144l-0.017 0.088c-0.018 0.080-0.029 0.172-0.029 0.266 0 0.596 0.417 1.094 0.975 1.219l0.008 0.002c0.081 0.019 0.174 0.029 0.269 0.029 0.596 0 1.094-0.418 1.218-0.976l0.002-0.008c1.074-4.761 5.267-8.264 10.279-8.264s9.206 3.504 10.266 8.195l0.013 0.070c0.127 0.566 0.625 0.982 1.221 0.982 0.69 0 1.25-0.559 1.25-1.25 0-0.095-0.011-0.187-0.031-0.276l0.002 0.008c-1.351-5.88-6.527-10.203-12.718-10.231h-0.003zM30 13.253h-2.252v-2.253c0-0.69-0.56-1.25-1.25-1.25s-1.25 0.56-1.25 1.25v0 2.253h-2.254c-0.69 0-1.25 0.56-1.25 1.25s0.56 1.25 1.25 1.25v0h2.254v2.253c0 0.69 0.56 1.25 1.25 1.25s1.25-0.56 1.25-1.25v0-2.253h2.252c0.69 0 1.25-0.56 1.25-1.25s-0.56-1.25-1.25-1.25v0z"></path>
</svg>